<?xml version="1.0" encoding="UTF-8"?>
<svg xmlns="http://www.w3.org/2000/svg" xmlns:xlink="http://www.w3.org/1999/xlink" width="50pt" height="50pt" viewBox="0 0 50 50" version="1.1">
<g id="surface1">
<path style=" stroke:none;fill-rule:nonzero;fill:rgb(93.72549%,14.901961%,28.235294%);fill-opacity:1;" d="M 39.65625 13.363281 L 34.484375 18.535156 L 31.035156 18.535156 L 31.035156 23.707031 L 37.070312 23.707031 L 41.378906 19.398438 L 41.378906 29.742188 L 50 29.742188 L 50 13.363281 Z M 39.65625 13.363281 "/>
<path style=" stroke:none;fill-rule:nonzero;fill:rgb(100%,83.137255%,69.019608%);fill-opacity:1;" d="M 28.449219 18.535156 C 27.019531 18.535156 25.863281 19.691406 25.863281 21.121094 C 25.863281 22.550781 27.019531 23.707031 28.449219 23.707031 L 31.035156 23.707031 L 31.035156 18.535156 Z M 28.449219 18.535156 "/>
<path style=" stroke:none;fill-rule:nonzero;fill:rgb(100%,83.137255%,69.019608%);fill-opacity:1;" d="M 21.550781 18.535156 L 18.964844 18.535156 L 18.964844 23.707031 L 21.550781 23.707031 C 22.980469 23.707031 24.136719 22.550781 24.136719 21.121094 C 24.136719 19.691406 22.980469 18.535156 21.550781 18.535156 Z M 21.550781 18.535156 "/>
<path style=" stroke:none;fill-rule:nonzero;fill:rgb(30.196078%,70.980392%,100%);fill-opacity:1;" d="M 15.515625 18.535156 L 10.34375 13.363281 L 0 13.363281 L 0 29.742188 L 8.621094 29.742188 L 8.621094 19.398438 L 12.929688 23.707031 L 18.964844 23.707031 L 18.964844 18.535156 Z M 15.515625 18.535156 "/>
<path style=" stroke:none;fill-rule:nonzero;fill:rgb(100%,83.137255%,69.019608%);fill-opacity:1;" d="M 1.136719 7.078125 C 1.945312 9.3125 4.414062 10.464844 6.644531 9.65625 C 8.351562 9.039062 9.488281 7.417969 9.484375 5.601562 L 9.484375 3.878906 L 9.1875 3.878906 C 6.195312 3.882812 3.316406 5.027344 1.136719 7.078125 Z M 1.136719 7.078125 "/>
<path style=" stroke:none;fill-rule:nonzero;fill:rgb(100%,64.705882%,6.666667%);fill-opacity:1;" d="M 5.171875 1.292969 C 2.792969 1.292969 0.863281 3.222656 0.863281 5.601562 C 0.867188 6.105469 0.960938 6.605469 1.136719 7.078125 C 3.316406 5.027344 6.195312 3.882812 9.1875 3.878906 L 9.484375 3.878906 L 9.484375 1.292969 Z M 5.171875 1.292969 "/>
<path style=" stroke:none;fill-rule:nonzero;fill:rgb(100%,83.137255%,69.019608%);fill-opacity:1;" d="M 40.515625 3.878906 L 40.515625 5.601562 C 40.511719 7.976562 42.433594 9.910156 44.808594 9.914062 C 46.621094 9.917969 48.242188 8.785156 48.863281 7.078125 C 46.683594 5.027344 43.804688 3.882812 40.8125 3.878906 C 40.8125 3.878906 40.515625 3.878906 40.515625 3.878906 Z M 40.515625 3.878906 "/>
<path style=" stroke:none;fill-rule:nonzero;fill:rgb(100%,64.705882%,6.666667%);fill-opacity:1;" d="M 44.828125 1.292969 L 40.515625 1.292969 L 40.515625 3.878906 L 40.8125 3.878906 C 43.804688 3.882812 46.683594 5.027344 48.863281 7.078125 C 49.039062 6.605469 49.132812 6.105469 49.136719 5.601562 C 49.136719 3.222656 47.207031 1.292969 44.828125 1.292969 Z M 44.828125 1.292969 "/>
<path style=" stroke:none;fill-rule:nonzero;fill:rgb(13.72549%,31.372549%,52.941176%);fill-opacity:1;" d="M 0 31.464844 C 0 33.371094 1.542969 34.914062 3.449219 34.914062 L 8.621094 34.914062 C 9.574219 34.914062 10.34375 35.683594 10.34375 36.636719 L 10.34375 46.121094 C 10.34375 47.074219 11.117188 47.84375 12.070312 47.84375 L 13.792969 47.84375 C 14.746094 47.84375 15.515625 47.074219 15.515625 46.121094 L 15.515625 34.914062 C 15.515625 32.058594 13.203125 29.742188 10.34375 29.742188 L 0 29.742188 Z M 0 31.464844 "/>
<path style=" stroke:none;fill-rule:nonzero;fill:rgb(13.72549%,31.372549%,52.941176%);fill-opacity:1;" d="M 25 48.707031 C 24.523438 48.707031 24.136719 48.320312 24.136719 47.84375 L 24.136719 27.15625 C 24.136719 26.679688 24.523438 26.292969 25 26.292969 C 25.476562 26.292969 25.863281 26.679688 25.863281 27.15625 L 25.863281 47.84375 C 25.863281 48.320312 25.476562 48.707031 25 48.707031 Z M 25 48.707031 "/>
<path style=" stroke:none;fill-rule:nonzero;fill:rgb(53.72549%,58.039216%,63.921569%);fill-opacity:1;" d="M 35.34375 28.015625 L 14.65625 28.015625 C 14.179688 28.015625 13.792969 27.632812 13.792969 27.15625 C 13.792969 26.679688 14.179688 26.292969 14.65625 26.292969 L 35.34375 26.292969 C 35.820312 26.292969 36.207031 26.679688 36.207031 27.15625 C 36.207031 27.632812 35.820312 28.015625 35.34375 28.015625 Z M 35.34375 28.015625 "/>
<path style=" stroke:none;fill-rule:nonzero;fill:rgb(13.72549%,31.372549%,52.941176%);fill-opacity:1;" d="M 28.449219 48.707031 L 21.550781 48.707031 C 21.074219 48.707031 20.691406 48.320312 20.691406 47.84375 C 20.691406 47.367188 21.074219 46.984375 21.550781 46.984375 L 28.449219 46.984375 C 28.925781 46.984375 29.308594 47.367188 29.308594 47.84375 C 29.308594 48.320312 28.925781 48.707031 28.449219 48.707031 Z M 28.449219 48.707031 "/>
<path style=" stroke:none;fill-rule:nonzero;fill:rgb(8.627451%,21.568627%,40.784314%);fill-opacity:1;" d="M 39.65625 29.742188 C 36.796875 29.742188 34.484375 32.058594 34.484375 34.914062 L 34.484375 46.121094 C 34.484375 47.074219 35.253906 47.84375 36.207031 47.84375 L 37.929688 47.84375 C 38.882812 47.84375 39.65625 47.074219 39.65625 46.121094 L 39.65625 36.636719 C 39.65625 35.6875 40.425781 34.914062 41.378906 34.914062 L 46.550781 34.914062 C 48.457031 34.914062 50 33.371094 50 31.464844 L 50 29.742188 Z M 39.65625 29.742188 "/>
<path style=" stroke:none;fill-rule:nonzero;fill:rgb(8.627451%,21.568627%,40.784314%);fill-opacity:1;" d="M 1.984375 34.574219 C 2.441406 34.792969 2.941406 34.910156 3.449219 34.914062 L 8.621094 34.914062 C 9.574219 34.914062 10.34375 35.683594 10.34375 36.636719 L 10.34375 46.121094 C 10.34375 47.074219 11.117188 47.84375 12.070312 47.84375 L 13.792969 47.84375 C 14.746094 47.84375 15.515625 47.074219 15.515625 46.121094 L 15.515625 34.914062 C 15.515625 34.101562 15.324219 33.300781 14.957031 32.578125 C 10.683594 33.542969 6.347656 34.207031 1.984375 34.574219 Z M 1.984375 34.574219 "/>
<path style=" stroke:none;fill-rule:nonzero;fill:rgb(69.803922%,5.098039%,14.117647%);fill-opacity:1;" d="M 41.378906 22.222656 L 41.378906 29.742188 L 50 29.742188 L 50 16.585938 C 47.230469 18.621094 44.351562 20.503906 41.378906 22.222656 Z M 41.378906 22.222656 "/>
<path style=" stroke:none;fill-rule:nonzero;fill:rgb(92.941176%,76.862745%,63.529412%);fill-opacity:1;" d="M 43.964844 9.050781 C 43.035156 9.050781 42.128906 8.742188 41.390625 8.179688 C 42.796875 10.082031 45.476562 10.480469 47.378906 9.074219 C 48.058594 8.570312 48.574219 7.875 48.863281 7.078125 C 48.574219 6.808594 48.277344 6.558594 47.96875 6.320312 C 47.320312 7.964844 45.734375 9.050781 43.964844 9.050781 Z M 43.964844 9.050781 "/>
<path style=" stroke:none;fill-rule:nonzero;fill:rgb(94.117647%,50.196078%,8.235294%);fill-opacity:1;" d="M 47.402344 2.164062 C 48.3125 3.351562 48.527344 4.933594 47.96875 6.320312 C 48.277344 6.558594 48.574219 6.808594 48.863281 7.078125 C 49.539062 5.296875 48.941406 3.285156 47.402344 2.164062 Z M 47.402344 2.164062 "/>
<path style=" stroke:none;fill-rule:nonzero;fill:rgb(92.941176%,76.862745%,63.529412%);fill-opacity:1;" d="M 8.621094 3.90625 L 8.621094 4.742188 C 8.621094 7.121094 6.691406 9.050781 4.308594 9.050781 C 3.382812 9.050781 2.476562 8.746094 1.738281 8.183594 C 3.15625 10.085938 5.851562 10.480469 7.753906 9.0625 C 8.84375 8.246094 9.484375 6.964844 9.484375 5.605469 L 9.484375 3.878906 L 9.1875 3.878906 C 8.996094 3.878906 8.808594 3.898438 8.621094 3.90625 Z M 8.621094 3.90625 "/>
<path style=" stroke:none;fill-rule:nonzero;fill:rgb(94.117647%,50.196078%,8.235294%);fill-opacity:1;" d="M 8.621094 1.292969 L 8.621094 3.90625 C 8.808594 3.898438 8.996094 3.878906 9.1875 3.878906 L 9.484375 3.878906 L 9.484375 1.292969 Z M 8.621094 1.292969 "/>
<path style=" stroke:none;fill-rule:nonzero;fill:rgb(92.941176%,76.862745%,63.529412%);fill-opacity:1;" d="M 18.964844 21.984375 L 18.964844 23.707031 L 21.550781 23.707031 C 22.644531 23.703125 23.617188 23.015625 23.980469 21.984375 Z M 18.964844 21.984375 "/>
<path style=" stroke:none;fill-rule:nonzero;fill:rgb(20.784314%,58.823529%,84.705882%);fill-opacity:1;" d="M 11.207031 21.984375 L 12.929688 23.707031 L 18.964844 23.707031 L 18.964844 21.984375 Z M 11.207031 21.984375 "/>
<path style=" stroke:none;fill-rule:nonzero;fill:rgb(69.803922%,5.098039%,14.117647%);fill-opacity:1;" d="M 31.035156 23.707031 L 37.070312 23.707031 L 38.792969 21.984375 L 31.035156 21.984375 Z M 31.035156 23.707031 "/>
<path style=" stroke:none;fill-rule:nonzero;fill:rgb(92.941176%,76.862745%,63.529412%);fill-opacity:1;" d="M 26.019531 21.984375 C 26.382812 23.015625 27.355469 23.703125 28.449219 23.707031 L 31.035156 23.707031 L 31.035156 21.984375 Z M 26.019531 21.984375 "/>
</g>
</svg>
