<?xml version="1.0" encoding="UTF-8"?>
<svg xmlns="http://www.w3.org/2000/svg" xmlns:xlink="http://www.w3.org/1999/xlink" width="50pt" height="50pt" viewBox="0 0 50 50" version="1.1">
<g id="surface1">
<path style=" stroke:none;fill-rule:nonzero;fill:rgb(21.568627%,94.117647%,40%);fill-opacity:1;" d="M 21.667969 18.332031 L 16.179688 18.332031 L 11.421875 13.578125 C 11.265625 13.421875 11.054688 13.332031 10.832031 13.332031 L 0.832031 13.332031 C 0.375 13.332031 0 13.707031 0 14.167969 L 0 31.667969 C 0.00390625 33.964844 1.867188 35.832031 4.167969 35.832031 L 9.167969 35.832031 C 9.625 35.832031 10 36.207031 10 36.667969 L 10 45.832031 C 10 47.214844 11.121094 48.332031 12.5 48.332031 L 14.167969 48.332031 C 15.546875 48.332031 16.667969 47.214844 16.667969 45.832031 L 16.667969 35 C 16.664062 31.78125 14.054688 29.171875 10.832031 29.167969 L 10 29.167969 L 10 22.011719 L 12.746094 24.753906 C 12.902344 24.910156 13.113281 25 13.332031 25 L 21.667969 25 C 23.507812 25 25 23.507812 25 21.667969 C 25 19.824219 23.507812 18.332031 21.667969 18.332031 Z M 21.667969 23.332031 L 13.679688 23.332031 L 9.753906 19.410156 C 9.429688 19.085938 8.902344 19.085938 8.578125 19.410156 C 8.421875 19.566406 8.332031 19.777344 8.332031 20 L 8.332031 30 C 8.332031 30.460938 8.707031 30.832031 9.167969 30.832031 L 10.832031 30.832031 C 13.132812 30.835938 14.996094 32.699219 15 35 L 15 45.832031 C 15 46.292969 14.625 46.667969 14.167969 46.667969 L 12.5 46.667969 C 12.039062 46.667969 11.667969 46.292969 11.667969 45.832031 L 11.667969 36.667969 C 11.667969 35.285156 10.546875 34.167969 9.167969 34.167969 L 4.167969 34.167969 C 2.785156 34.167969 1.667969 33.046875 1.667969 31.667969 L 1.667969 15 L 10.488281 15 L 15.246094 19.753906 C 15.402344 19.910156 15.613281 20 15.832031 20 L 21.667969 20 C 22.585938 20 23.332031 20.746094 23.332031 21.667969 C 23.332031 22.585938 22.585938 23.332031 21.667969 23.332031 Z M 21.667969 23.332031 "/>
<path style=" stroke:none;fill-rule:nonzero;fill:rgb(21.568627%,94.117647%,40%);fill-opacity:1;" d="M 49.167969 13.332031 L 39.167969 13.332031 C 38.945312 13.332031 38.734375 13.421875 38.578125 13.578125 L 33.820312 18.332031 L 28.332031 18.332031 C 26.492188 18.332031 25 19.824219 25 21.667969 C 25 23.507812 26.492188 25 28.332031 25 L 36.667969 25 C 36.886719 25 37.097656 24.910156 37.253906 24.753906 L 40 22.011719 L 40 29.167969 L 39.167969 29.167969 C 35.945312 29.171875 33.335938 31.78125 33.332031 35 L 33.332031 45.832031 C 33.332031 47.214844 34.453125 48.332031 35.832031 48.332031 L 37.5 48.332031 C 38.878906 48.332031 40 47.214844 40 45.832031 L 40 36.667969 C 40 36.207031 40.375 35.832031 40.832031 35.832031 L 45.832031 35.832031 C 48.132812 35.832031 49.996094 33.964844 50 31.667969 L 50 14.167969 C 50 13.707031 49.625 13.332031 49.167969 13.332031 Z M 48.332031 31.667969 C 48.332031 33.046875 47.214844 34.167969 45.832031 34.167969 L 40.832031 34.167969 C 39.453125 34.167969 38.332031 35.285156 38.332031 36.667969 L 38.332031 45.832031 C 38.332031 46.292969 37.960938 46.667969 37.5 46.667969 L 35.832031 46.667969 C 35.375 46.667969 35 46.292969 35 45.832031 L 35 35 C 35.003906 32.699219 36.867188 30.835938 39.167969 30.832031 L 40.832031 30.832031 C 41.292969 30.832031 41.667969 30.460938 41.667969 30 L 41.667969 20 C 41.667969 19.539062 41.292969 19.167969 40.832031 19.167969 C 40.613281 19.167969 40.402344 19.253906 40.246094 19.410156 L 36.320312 23.332031 L 28.332031 23.332031 C 27.414062 23.332031 26.667969 22.585938 26.667969 21.667969 C 26.667969 20.746094 27.414062 20 28.332031 20 L 34.167969 20 C 34.386719 20 34.597656 19.910156 34.753906 19.753906 L 39.511719 15 L 48.332031 15 Z M 48.332031 31.667969 "/>
<path style=" stroke:none;fill-rule:nonzero;fill:rgb(21.568627%,94.117647%,40%);fill-opacity:1;" d="M 35 26.667969 L 15 26.667969 C 14.539062 26.667969 14.167969 27.039062 14.167969 27.5 C 14.167969 27.960938 14.539062 28.332031 15 28.332031 L 24.167969 28.332031 L 24.167969 46.667969 L 21.667969 46.667969 C 21.207031 46.667969 20.832031 47.039062 20.832031 47.5 C 20.832031 47.960938 21.207031 48.332031 21.667969 48.332031 L 28.332031 48.332031 C 28.792969 48.332031 29.167969 47.960938 29.167969 47.5 C 29.167969 47.039062 28.792969 46.667969 28.332031 46.667969 L 25.832031 46.667969 L 25.832031 28.332031 L 35 28.332031 C 35.460938 28.332031 35.832031 27.960938 35.832031 27.5 C 35.832031 27.039062 35.460938 26.667969 35 26.667969 Z M 35 26.667969 "/>
<path style=" stroke:none;fill-rule:nonzero;fill:rgb(21.568627%,94.117647%,40%);fill-opacity:1;" d="M 44.167969 1.667969 L 40 1.667969 C 39.539062 1.667969 39.167969 2.039062 39.167969 2.5 L 39.167969 6.667969 C 39.167969 9.429688 41.40625 11.667969 44.167969 11.667969 C 46.929688 11.667969 49.167969 9.429688 49.167969 6.667969 C 49.164062 3.90625 46.925781 1.667969 44.167969 1.667969 Z M 42.535156 9.578125 C 41.480469 8.988281 40.828125 7.875 40.832031 6.667969 L 40.832031 5.859375 C 43.117188 5.96875 45.304688 6.824219 47.054688 8.296875 C 46.160156 9.898438 44.136719 10.472656 42.535156 9.578125 Z M 40.832031 4.191406 L 40.832031 3.332031 L 44.167969 3.332031 C 45.949219 3.339844 47.414062 4.746094 47.484375 6.527344 C 45.550781 5.105469 43.234375 4.292969 40.832031 4.191406 Z M 40.832031 4.191406 "/>
<path style=" stroke:none;fill-rule:nonzero;fill:rgb(21.568627%,94.117647%,40%);fill-opacity:1;" d="M 10 1.667969 L 5.832031 1.667969 C 3.070312 1.667969 0.832031 3.90625 0.832031 6.667969 C 0.832031 9.429688 3.070312 11.667969 5.832031 11.667969 C 8.59375 11.664062 10.832031 9.425781 10.832031 6.667969 L 10.832031 2.5 C 10.832031 2.039062 10.460938 1.667969 10 1.667969 Z M 9.167969 6.667969 C 9.167969 8.507812 7.675781 10 5.832031 10 C 4.632812 9.996094 3.53125 9.34375 2.945312 8.296875 C 4.695312 6.824219 6.882812 5.96875 9.167969 5.859375 Z M 9.167969 4.191406 C 6.765625 4.292969 4.449219 5.105469 2.515625 6.527344 C 2.589844 4.746094 4.050781 3.339844 5.832031 3.332031 L 9.167969 3.332031 Z M 9.167969 4.191406 "/>
</g>
</svg>
